# xmcd CD database file
#
# Track frame offsets:
#	150
#	10298
#	26861
#	45124
#	60008
#	74241
#	89420
#	104928
#	125133
#	139977
#
# Disc length: 2169 seconds
#
# Revision: 0
# Processed by: cddbd v1.5.2PL0 Copyright (c) Steve Scherf et al.
# Submitted via: CDex 1.51
#
DISCID=9308770a
DTITLE=Mike Costley - I am a Singer
DYEAR=2005
DGENRE=Jazz
TTITLE0=As Long As I'm Singing
TTITLE1=Night Life
TTITLE2=Autumn Leaves
TTITLE3=Sunday in New York
TTITLE4=I am a Singer
TTITLE5=Them There Eyes
TTITLE6=Mambo-Italiano
TTITLE7=Overjoyed
TTITLE8=Too Marvelous For Words
TTITLE9=Hurry
EXTD=YEAR: 2005
EXTT0=
EXTT1=
EXTT2=
EXTT3=
EXTT4=
EXTT5=
EXTT6=
EXTT7=
EXTT8=
EXTT9=
PLAYORDER=
